<svg aria-hidden="true" style="position: absolute; width: 0; height: 0; overflow: hidden;" version="1.1" xmlns="http://www.w3.org/2000/svg" xmlns:xlink="http://www.w3.org/1999/xlink">
<defs>
<symbol id="icon-user" viewBox="0 0 24 24">
<path d="M23.332 21.252c-0.151-0.1-2.886-1.894-6.955-2.774 1.492-1.891 2.451-4.434 2.858-6.127 0.566-2.346 0.346-6.936-1.907-9.796-1.317-1.672-3.16-2.554-5.329-2.554s-4.012 0.883-5.328 2.554c-2.253 2.86-2.472 7.45-1.907 9.796 0.407 1.693 1.365 4.236 2.858 6.127-4.069 0.88-6.804 2.674-6.954 2.774-0.55 0.366-0.796 1.050-0.604 1.682 0.191 0.634 0.775 1.067 1.435 1.067h21c0.661 0 1.244-0.433 1.436-1.067 0.193-0.631-0.053-1.316-0.603-1.681zM15.2 17.549l-0.245 0.311c-1.789 2.055-4.121 2.055-5.909 0l-0.245-0.311c-2.089-2.647-3.125-6.148-2.679-9.488 0.409-3.209 2.248-6.561 5.878-6.561s5.47 3.353 5.879 6.562c0.445 3.341-0.588 6.838-2.678 9.487zM1.5 22.5c0.103-0.069 2.644-1.736 6.44-2.556l1.863-0.403c0.665 0.437 1.395 0.709 2.197 0.709s1.532-0.272 2.197-0.709l1.863 0.403c3.765 0.814 6.297 2.462 6.439 2.556h-21z"></path>
</symbol>
<symbol id="icon-shopping_bag" viewBox="0 0 24 24">
<path d="M18 6h-2.016q0-1.125-0.539-2.016t-1.43-1.43-2.016-0.539-2.016 0.539-1.43 1.43-0.539 2.016h-2.016q-0.844 0-1.43 0.586t-0.586 1.43v12q0 0.797 0.586 1.383t1.43 0.586h12q0.844 0 1.43-0.586t0.586-1.383v-12q0-0.844-0.586-1.43t-1.43-0.586zM9.984 9.984q0 0.422-0.281 0.727t-0.703 0.305-0.703-0.305-0.281-0.727v-1.969h1.969v1.969zM12 3.984q0.844 0 1.43 0.586t0.586 1.43h-4.031q0-0.844 0.586-1.43t1.43-0.586zM15.984 9.984q0 0.422-0.281 0.727t-0.703 0.305-0.703-0.305-0.281-0.727v-1.969h1.969v1.969z"></path>
</symbol>
<symbol id="icon-g_translate" viewBox="0 0 24 24">
<path d="M21.516 20.484v-13.969q0-0.422-0.305-0.727t-0.727-0.305h-9.047l1.313 3.797h1.453v-1.266h1.266v1.266h4.547v1.313h-1.922q-0.703 2.344-2.391 4.219l3.281 3.281-0.938 0.891-3.094-3.094 1.031 3.094-1.969 2.531h6.469q0.422 0 0.727-0.305t0.305-0.727zM13.172 10.594l0.797 2.344 0.844 1.125q1.453-1.594 2.063-3.469h-3.703zM6.984 15.984q2.156 0 3.492-1.359t1.336-3.516q0-0.047-0.141-1.031h-4.688v1.734h2.953q-0.094 0.891-0.844 1.641t-2.109 0.75q-1.313 0-2.227-0.938t-0.914-2.25q0-1.359 0.914-2.297t2.227-0.938q1.266 0 2.063 0.797l1.313-1.266q-1.453-1.313-3.375-1.313-2.063 0-3.516 1.477t-1.453 3.539 1.453 3.516 3.516 1.453zM21 3.984q0.797 0 1.406 0.609t0.609 1.406v15q0 0.797-0.609 1.406t-1.406 0.609h-9l-0.984-3h-8.016q-0.797 0-1.406-0.609t-0.609-1.406v-15q0-0.797 0.609-1.406t1.406-0.609h6.984l1.031 3h9.984z"></path>
</symbol>
</defs>
</svg>
